<mxfile host="app.diagrams.net" modified="2023-10-31T13:56:56.142Z" agent="Mozilla/5.0 (Windows NT 10.0; Win64; x64; rv:109.0) Gecko/20100101 Firefox/116.0" etag="mVdrdCI9IlDkfuWBJ-sh" version="22.0.8" type="device">
  <diagram name="Page-1" id="u9EmTm14aIS3WBHgXmOk">
    <mxGraphModel dx="2336" dy="1992" grid="1" gridSize="10" guides="1" tooltips="1" connect="1" arrows="1" fold="1" page="1" pageScale="1" pageWidth="827" pageHeight="1169" math="0" shadow="0">
      <root>
        <mxCell id="0" />
        <mxCell id="1" parent="0" />
        <mxCell id="SxXsiV88UcKwgikaE5HA-2" value="" style="rounded=0;whiteSpace=wrap;html=1;fillColor=none;" vertex="1" parent="1">
          <mxGeometry x="1100" y="10" width="270" height="310" as="geometry" />
        </mxCell>
        <mxCell id="5rb6dhZWjBb2u9iBjQLc-51" value="" style="rounded=0;whiteSpace=wrap;html=1;fillColor=none;" parent="1" vertex="1">
          <mxGeometry x="-290" y="40.5" width="210" height="420" as="geometry" />
        </mxCell>
        <mxCell id="5rb6dhZWjBb2u9iBjQLc-49" value="" style="rounded=0;whiteSpace=wrap;html=1;fillColor=none;" parent="1" vertex="1">
          <mxGeometry x="598" y="10" width="382" height="310" as="geometry" />
        </mxCell>
        <mxCell id="5rb6dhZWjBb2u9iBjQLc-1" value="&lt;font style=&quot;font-size: 14px;&quot;&gt;Database&lt;br&gt;(MySQL)&lt;/font&gt;" style="strokeWidth=2;html=1;shape=mxgraph.flowchart.database;whiteSpace=wrap;" parent="1" vertex="1">
          <mxGeometry x="1220" y="139" width="99" height="150" as="geometry" />
        </mxCell>
        <mxCell id="WCC0QbR53YFn9wZXsvke-26" style="edgeStyle=orthogonalEdgeStyle;rounded=0;orthogonalLoop=1;jettySize=auto;html=1;exitX=0.875;exitY=0.5;exitDx=0;exitDy=0;exitPerimeter=0;entryX=0.5;entryY=0;entryDx=0;entryDy=0;startArrow=classic;startFill=1;" parent="1" source="5rb6dhZWjBb2u9iBjQLc-2" target="WCC0QbR53YFn9wZXsvke-24" edge="1">
          <mxGeometry relative="1" as="geometry" />
        </mxCell>
        <mxCell id="SxXsiV88UcKwgikaE5HA-47" style="edgeStyle=orthogonalEdgeStyle;rounded=0;orthogonalLoop=1;jettySize=auto;html=1;exitX=0.875;exitY=0.5;exitDx=0;exitDy=0;exitPerimeter=0;entryX=0.5;entryY=0;entryDx=0;entryDy=0;" edge="1" parent="1" source="5rb6dhZWjBb2u9iBjQLc-2" target="SxXsiV88UcKwgikaE5HA-46">
          <mxGeometry relative="1" as="geometry" />
        </mxCell>
        <mxCell id="5rb6dhZWjBb2u9iBjQLc-2" value="&lt;font style=&quot;font-size: 14px;&quot;&gt;Internet&lt;/font&gt;" style="ellipse;shape=cloud;whiteSpace=wrap;html=1;" parent="1" vertex="1">
          <mxGeometry x="130" y="190" width="120" height="80" as="geometry" />
        </mxCell>
        <mxCell id="Ie-OfRQaVs06B5CcUwJW-7" style="edgeStyle=orthogonalEdgeStyle;rounded=0;orthogonalLoop=1;jettySize=auto;html=1;exitX=1;exitY=0.5;exitDx=0;exitDy=0;startArrow=classic;startFill=1;" parent="1" source="5rb6dhZWjBb2u9iBjQLc-4" target="5rb6dhZWjBb2u9iBjQLc-31" edge="1">
          <mxGeometry relative="1" as="geometry" />
        </mxCell>
        <mxCell id="5rb6dhZWjBb2u9iBjQLc-4" value="&lt;font style=&quot;font-size: 14px;&quot;&gt;Application&lt;br&gt;server&lt;/font&gt;" style="rounded=1;whiteSpace=wrap;html=1;absoluteArcSize=1;arcSize=14;strokeWidth=2;" parent="1" vertex="1">
          <mxGeometry x="620" y="195" width="100" height="100" as="geometry" />
        </mxCell>
        <mxCell id="5rb6dhZWjBb2u9iBjQLc-27" style="edgeStyle=orthogonalEdgeStyle;rounded=0;orthogonalLoop=1;jettySize=auto;html=1;exitX=0.5;exitY=1;exitDx=0;exitDy=0;entryX=0.5;entryY=0;entryDx=0;entryDy=0;startArrow=classic;startFill=1;" parent="1" source="5rb6dhZWjBb2u9iBjQLc-6" target="5rb6dhZWjBb2u9iBjQLc-4" edge="1">
          <mxGeometry relative="1" as="geometry" />
        </mxCell>
        <mxCell id="5rb6dhZWjBb2u9iBjQLc-6" value="&lt;font style=&quot;font-size: 14px;&quot;&gt;Web&amp;nbsp;Server&lt;br&gt;(Nginx)&lt;/font&gt;" style="rounded=1;whiteSpace=wrap;html=1;absoluteArcSize=1;arcSize=14;strokeWidth=2;" parent="1" vertex="1">
          <mxGeometry x="827" y="50" width="100" height="100" as="geometry" />
        </mxCell>
        <mxCell id="5rb6dhZWjBb2u9iBjQLc-34" style="edgeStyle=orthogonalEdgeStyle;rounded=0;orthogonalLoop=1;jettySize=auto;html=1;exitX=1;exitY=0.5;exitDx=0;exitDy=0;entryX=0;entryY=0.5;entryDx=0;entryDy=0;startArrow=classic;startFill=1;" parent="1" source="5rb6dhZWjBb2u9iBjQLc-8" target="5rb6dhZWjBb2u9iBjQLc-17" edge="1">
          <mxGeometry relative="1" as="geometry" />
        </mxCell>
        <mxCell id="5rb6dhZWjBb2u9iBjQLc-8" value="&lt;font style=&quot;font-size: 14px;&quot;&gt;Browser&lt;/font&gt;" style="rounded=1;whiteSpace=wrap;html=1;absoluteArcSize=1;arcSize=14;strokeWidth=2;" parent="1" vertex="1">
          <mxGeometry x="-230" y="100.5" width="80" height="80" as="geometry" />
        </mxCell>
        <mxCell id="5rb6dhZWjBb2u9iBjQLc-43" style="edgeStyle=orthogonalEdgeStyle;rounded=0;orthogonalLoop=1;jettySize=auto;html=1;exitX=0.75;exitY=0;exitDx=0;exitDy=0;entryX=0.75;entryY=1;entryDx=0;entryDy=0;" parent="1" source="5rb6dhZWjBb2u9iBjQLc-13" target="5rb6dhZWjBb2u9iBjQLc-17" edge="1">
          <mxGeometry relative="1" as="geometry">
            <Array as="points">
              <mxPoint x="33" y="380.5" />
            </Array>
          </mxGeometry>
        </mxCell>
        <mxCell id="5rb6dhZWjBb2u9iBjQLc-44" value="Returns IP:&lt;br style=&quot;border-color: var(--border-color); font-size: 12px;&quot;&gt;&lt;span style=&quot;font-size: 12px;&quot;&gt;8.8.8.8&lt;/span&gt;" style="edgeLabel;html=1;align=center;verticalAlign=middle;resizable=0;points=[];" parent="5rb6dhZWjBb2u9iBjQLc-43" vertex="1" connectable="0">
          <mxGeometry x="-0.0605" y="1" relative="1" as="geometry">
            <mxPoint x="21" y="-14" as="offset" />
          </mxGeometry>
        </mxCell>
        <mxCell id="5rb6dhZWjBb2u9iBjQLc-13" value="&lt;font style=&quot;font-size: 14px;&quot;&gt;DNS&lt;br&gt;server&lt;/font&gt;" style="rounded=1;whiteSpace=wrap;html=1;absoluteArcSize=1;arcSize=14;strokeWidth=2;" parent="1" vertex="1">
          <mxGeometry x="-27" y="370.5" width="100" height="90" as="geometry" />
        </mxCell>
        <mxCell id="5rb6dhZWjBb2u9iBjQLc-20" style="edgeStyle=orthogonalEdgeStyle;rounded=0;orthogonalLoop=1;jettySize=auto;html=1;exitX=0.25;exitY=1;exitDx=0;exitDy=0;entryX=0.18;entryY=0;entryDx=0;entryDy=0;entryPerimeter=0;" parent="1" source="5rb6dhZWjBb2u9iBjQLc-17" target="5rb6dhZWjBb2u9iBjQLc-13" edge="1">
          <mxGeometry relative="1" as="geometry">
            <mxPoint x="-7" y="370.5" as="targetPoint" />
            <Array as="points">
              <mxPoint x="-7" y="285.5" />
              <mxPoint x="-9" y="285.5" />
            </Array>
          </mxGeometry>
        </mxCell>
        <mxCell id="5rb6dhZWjBb2u9iBjQLc-23" value="&lt;font style=&quot;font-size: 12px;&quot;&gt;Requests&lt;br&gt;the IP for&lt;br&gt;www.foobar.com&lt;/font&gt;" style="edgeLabel;html=1;align=center;verticalAlign=middle;resizable=0;points=[];" parent="5rb6dhZWjBb2u9iBjQLc-20" vertex="1" connectable="0">
          <mxGeometry x="0.0222" y="-2" relative="1" as="geometry">
            <mxPoint x="-18" y="-6" as="offset" />
          </mxGeometry>
        </mxCell>
        <mxCell id="WCC0QbR53YFn9wZXsvke-2" style="edgeStyle=orthogonalEdgeStyle;rounded=0;orthogonalLoop=1;jettySize=auto;html=1;exitX=1;exitY=0.5;exitDx=0;exitDy=0;entryX=0.07;entryY=0.4;entryDx=0;entryDy=0;entryPerimeter=0;startArrow=classic;startFill=1;" parent="1" source="5rb6dhZWjBb2u9iBjQLc-17" target="5rb6dhZWjBb2u9iBjQLc-2" edge="1">
          <mxGeometry relative="1" as="geometry">
            <Array as="points">
              <mxPoint x="100" y="131" />
              <mxPoint x="100" y="222" />
            </Array>
          </mxGeometry>
        </mxCell>
        <mxCell id="5rb6dhZWjBb2u9iBjQLc-17" value="&lt;font style=&quot;font-size: 14px;&quot;&gt;User router&lt;/font&gt;" style="whiteSpace=wrap;html=1;aspect=fixed;" parent="1" vertex="1">
          <mxGeometry x="-27" y="90.5" width="80" height="80" as="geometry" />
        </mxCell>
        <mxCell id="SxXsiV88UcKwgikaE5HA-13" style="edgeStyle=orthogonalEdgeStyle;rounded=0;orthogonalLoop=1;jettySize=auto;html=1;exitX=0;exitY=0;exitDx=80;exitDy=65;exitPerimeter=0;entryX=0.5;entryY=0;entryDx=0;entryDy=0;startArrow=classic;startFill=1;" edge="1" parent="1" source="5rb6dhZWjBb2u9iBjQLc-31" target="SxXsiV88UcKwgikaE5HA-12">
          <mxGeometry relative="1" as="geometry">
            <Array as="points">
              <mxPoint x="1000" y="260" />
              <mxPoint x="1000" y="100" />
            </Array>
          </mxGeometry>
        </mxCell>
        <mxCell id="5rb6dhZWjBb2u9iBjQLc-31" value="&lt;font style=&quot;font-size: 14px;&quot;&gt;Code base&lt;/font&gt;" style="shape=note;whiteSpace=wrap;html=1;backgroundOutline=1;darkOpacity=0.05;" parent="1" vertex="1">
          <mxGeometry x="827" y="195" width="80" height="100" as="geometry" />
        </mxCell>
        <mxCell id="Ie-OfRQaVs06B5CcUwJW-16" style="edgeStyle=orthogonalEdgeStyle;rounded=0;orthogonalLoop=1;jettySize=auto;html=1;exitX=1;exitY=0.5;exitDx=0;exitDy=0;startArrow=classic;startFill=1;" parent="1" source="5rb6dhZWjBb2u9iBjQLc-35" target="5rb6dhZWjBb2u9iBjQLc-6" edge="1">
          <mxGeometry relative="1" as="geometry" />
        </mxCell>
        <mxCell id="5rb6dhZWjBb2u9iBjQLc-35" value="&lt;font style=&quot;font-size: 14px;&quot;&gt;Server 1&lt;/font&gt;" style="rounded=1;whiteSpace=wrap;html=1;absoluteArcSize=1;arcSize=14;strokeWidth=2;" parent="1" vertex="1">
          <mxGeometry x="598" y="50" width="100" height="100" as="geometry" />
        </mxCell>
        <mxCell id="5rb6dhZWjBb2u9iBjQLc-41" style="edgeStyle=orthogonalEdgeStyle;rounded=0;orthogonalLoop=1;jettySize=auto;html=1;exitX=0.5;exitY=0;exitDx=0;exitDy=0;exitPerimeter=0;entryX=0.5;entryY=1;entryDx=0;entryDy=0;startArrow=classic;startFill=1;" parent="1" source="5rb6dhZWjBb2u9iBjQLc-40" target="5rb6dhZWjBb2u9iBjQLc-8" edge="1">
          <mxGeometry relative="1" as="geometry" />
        </mxCell>
        <mxCell id="5rb6dhZWjBb2u9iBjQLc-42" value="&lt;font style=&quot;font-size: 12px;&quot;&gt;Tries to access website&lt;/font&gt;" style="edgeLabel;html=1;align=center;verticalAlign=middle;resizable=0;points=[];" parent="5rb6dhZWjBb2u9iBjQLc-41" vertex="1" connectable="0">
          <mxGeometry x="0.0714" y="-2" relative="1" as="geometry">
            <mxPoint as="offset" />
          </mxGeometry>
        </mxCell>
        <mxCell id="5rb6dhZWjBb2u9iBjQLc-40" value="&lt;font style=&quot;font-size: 14px;&quot;&gt;User&lt;/font&gt;" style="strokeWidth=2;html=1;shape=mxgraph.flowchart.start_1;whiteSpace=wrap;" parent="1" vertex="1">
          <mxGeometry x="-240" y="360.5" width="100" height="70" as="geometry" />
        </mxCell>
        <mxCell id="5rb6dhZWjBb2u9iBjQLc-47" value="&lt;h1 style=&quot;font-size: 19px;&quot;&gt;&lt;span style=&quot;&quot;&gt;&lt;span style=&quot;&quot;&gt;&lt;span style=&quot;&quot;&gt;&amp;nbsp;&amp;nbsp;&amp;nbsp; &lt;/span&gt;&lt;/span&gt;&lt;/span&gt;3. Scale up&lt;br&gt;    &lt;/h1&gt;&lt;h1 style=&quot;font-size: 19px;&quot;&gt;    &lt;/h1&gt;&lt;div style=&quot;&quot;&gt;&lt;span style=&quot;font-size: 15px;&quot;&gt;&amp;nbsp;- Better redundancies at the database level&lt;br&gt;&lt;/span&gt;&lt;/div&gt;&lt;div style=&quot;&quot;&gt;&lt;span style=&quot;font-size: 15px;&quot;&gt;&amp;nbsp;- Firewalls filtering traffic&lt;/span&gt;&lt;/div&gt;&lt;div style=&quot;&quot;&gt;&lt;span style=&quot;font-size: 15px;&quot;&gt;&amp;nbsp;- HTTPS prevents reading intercepted data at every point over the network&amp;nbsp;&amp;nbsp; &lt;br&gt;&lt;/span&gt;&lt;/div&gt;&lt;div style=&quot;&quot;&gt;&lt;span style=&quot;font-size: 15px;&quot;&gt;&amp;nbsp;- Server monitoring via data collection (sent to client like Sumologic)&lt;br&gt;&lt;/span&gt;&lt;/div&gt;&lt;div style=&quot;&quot;&gt;&lt;span style=&quot;font-size: 15px;&quot;&gt;&amp;nbsp;- Two load balancers setup as a cluster for reliability&lt;br&gt;&lt;/span&gt;&lt;/div&gt;&lt;div style=&quot;&quot;&gt;&lt;span style=&quot;font-size: 15px;&quot;&gt;&amp;nbsp;- Dedicated servers for databases&lt;br&gt;&lt;/span&gt;&lt;/div&gt;&lt;div style=&quot;&quot;&gt;&lt;span style=&quot;font-size: 15px;&quot;&gt;&lt;br&gt;&lt;/span&gt;&lt;/div&gt;" style="text;html=1;align=left;verticalAlign=middle;resizable=0;points=[];autosize=1;labelBackgroundColor=default;labelBorderColor=default;strokeWidth=1;rounded=0;spacing=2;" parent="1" vertex="1">
          <mxGeometry x="-290" y="499" width="510" height="190" as="geometry" />
        </mxCell>
        <mxCell id="5rb6dhZWjBb2u9iBjQLc-50" value="&lt;h1&gt;&lt;font style=&quot;font-size: 16px;&quot;&gt;&lt;b&gt;REMOTE LINUX SERVER 1&lt;/b&gt;&lt;/font&gt;&lt;/h1&gt;" style="text;html=1;align=center;verticalAlign=middle;resizable=0;points=[];autosize=1;strokeColor=none;fillColor=none;" parent="1" vertex="1">
          <mxGeometry x="688" y="-10" width="230" height="70" as="geometry" />
        </mxCell>
        <mxCell id="5rb6dhZWjBb2u9iBjQLc-52" value="&lt;h1&gt;&lt;font style=&quot;font-size: 16px;&quot;&gt;&lt;b&gt;USER MACHINE&lt;/b&gt;&lt;/font&gt;&lt;/h1&gt;" style="text;html=1;align=center;verticalAlign=middle;resizable=0;points=[];autosize=1;strokeColor=none;fillColor=none;" parent="1" vertex="1">
          <mxGeometry x="-240" y="29.5" width="150" height="70" as="geometry" />
        </mxCell>
        <mxCell id="WCC0QbR53YFn9wZXsvke-10" style="edgeStyle=orthogonalEdgeStyle;rounded=0;orthogonalLoop=1;jettySize=auto;html=1;exitX=1;exitY=0.25;exitDx=0;exitDy=0;entryX=0.5;entryY=0;entryDx=0;entryDy=0;startArrow=classic;startFill=1;" parent="1" source="5rb6dhZWjBb2u9iBjQLc-60" target="WCC0QbR53YFn9wZXsvke-7" edge="1">
          <mxGeometry relative="1" as="geometry" />
        </mxCell>
        <mxCell id="SxXsiV88UcKwgikaE5HA-34" style="edgeStyle=orthogonalEdgeStyle;rounded=0;orthogonalLoop=1;jettySize=auto;html=1;exitX=1;exitY=0.75;exitDx=0;exitDy=0;entryX=0.5;entryY=0;entryDx=0;entryDy=0;startArrow=classic;startFill=1;" edge="1" parent="1" source="5rb6dhZWjBb2u9iBjQLc-60" target="SxXsiV88UcKwgikaE5HA-28">
          <mxGeometry relative="1" as="geometry" />
        </mxCell>
        <mxCell id="5rb6dhZWjBb2u9iBjQLc-60" value="&lt;div style=&quot;font-size: 14px;&quot;&gt;&lt;font style=&quot;font-size: 14px;&quot;&gt;8.8.8.8&lt;br&gt;&lt;/font&gt;&lt;/div&gt;&lt;div style=&quot;font-size: 14px;&quot;&gt;&lt;font style=&quot;font-size: 14px;&quot;&gt;Load balancer&lt;/font&gt;&lt;/div&gt;&lt;font style=&quot;font-size: 14px;&quot;&gt;(HAproxy)&lt;/font&gt;" style="shape=process;whiteSpace=wrap;html=1;backgroundOutline=1;" parent="1" vertex="1">
          <mxGeometry x="370" y="76" width="110" height="99.5" as="geometry" />
        </mxCell>
        <mxCell id="Ie-OfRQaVs06B5CcUwJW-6" style="edgeStyle=orthogonalEdgeStyle;rounded=0;orthogonalLoop=1;jettySize=auto;html=1;exitX=0.5;exitY=1;exitDx=0;exitDy=0;" parent="1" source="5rb6dhZWjBb2u9iBjQLc-49" target="5rb6dhZWjBb2u9iBjQLc-49" edge="1">
          <mxGeometry relative="1" as="geometry" />
        </mxCell>
        <mxCell id="WCC0QbR53YFn9wZXsvke-7" value="&lt;font style=&quot;font-size: 14px;&quot;&gt;Firewall&lt;/font&gt;" style="rounded=0;whiteSpace=wrap;html=1;direction=north;" parent="1" vertex="1">
          <mxGeometry x="538" y="20" width="60" height="161" as="geometry" />
        </mxCell>
        <mxCell id="WCC0QbR53YFn9wZXsvke-14" value="" style="shape=mxgraph.signs.healthcare.eye;html=1;pointerEvents=1;fillColor=#000000;strokeColor=none;verticalLabelPosition=bottom;verticalAlign=top;align=center;gradientColor=none;container=0;" parent="1" vertex="1">
          <mxGeometry x="1100" y="289" width="55" height="30" as="geometry" />
        </mxCell>
        <mxCell id="WCC0QbR53YFn9wZXsvke-20" value="" style="shape=mxgraph.signs.healthcare.eye;html=1;pointerEvents=1;fillColor=#000000;strokeColor=none;verticalLabelPosition=bottom;verticalAlign=top;align=center;gradientColor=none;container=0;" parent="1" vertex="1">
          <mxGeometry x="405" y="57" width="40" height="19" as="geometry" />
        </mxCell>
        <mxCell id="WCC0QbR53YFn9wZXsvke-24" value="&lt;font style=&quot;font-size: 14px;&quot;&gt;Firewall&lt;/font&gt;" style="rounded=0;whiteSpace=wrap;html=1;direction=north;" parent="1" vertex="1">
          <mxGeometry x="320" y="71.5" width="50" height="109" as="geometry" />
        </mxCell>
        <mxCell id="SxXsiV88UcKwgikaE5HA-1" value="" style="sketch=0;aspect=fixed;pointerEvents=1;shadow=0;dashed=0;html=1;strokeColor=none;labelPosition=center;verticalLabelPosition=bottom;verticalAlign=top;align=center;fillColor=#00188D;shape=mxgraph.mscae.enterprise.lock" vertex="1" parent="1">
          <mxGeometry x="90" y="110.5" width="23.4" height="30" as="geometry" />
        </mxCell>
        <mxCell id="SxXsiV88UcKwgikaE5HA-3" value="&lt;h1&gt;&lt;font style=&quot;font-size: 16px;&quot;&gt;&lt;b&gt;DATABASE SERVER 1&lt;/b&gt;&lt;/font&gt;&lt;/h1&gt;" style="text;html=1;align=center;verticalAlign=middle;resizable=0;points=[];autosize=1;strokeColor=none;fillColor=none;" vertex="1" parent="1">
          <mxGeometry x="1155" y="10" width="210" height="70" as="geometry" />
        </mxCell>
        <mxCell id="SxXsiV88UcKwgikaE5HA-10" value="" style="shape=mxgraph.signs.healthcare.eye;html=1;pointerEvents=1;fillColor=#000000;strokeColor=none;verticalLabelPosition=bottom;verticalAlign=top;align=center;gradientColor=none;container=0;" vertex="1" parent="1">
          <mxGeometry x="918" y="289" width="55" height="30" as="geometry" />
        </mxCell>
        <mxCell id="SxXsiV88UcKwgikaE5HA-12" value="&lt;font style=&quot;font-size: 14px;&quot;&gt;Firewall&lt;/font&gt;" style="rounded=0;whiteSpace=wrap;html=1;direction=north;" vertex="1" parent="1">
          <mxGeometry x="1040" y="19.5" width="60" height="161" as="geometry" />
        </mxCell>
        <mxCell id="SxXsiV88UcKwgikaE5HA-14" style="edgeStyle=orthogonalEdgeStyle;rounded=0;orthogonalLoop=1;jettySize=auto;html=1;exitX=0.5;exitY=1;exitDx=0;exitDy=0;entryX=0.5;entryY=0;entryDx=0;entryDy=0;entryPerimeter=0;startArrow=classic;startFill=1;" edge="1" parent="1" source="SxXsiV88UcKwgikaE5HA-12" target="5rb6dhZWjBb2u9iBjQLc-1">
          <mxGeometry relative="1" as="geometry" />
        </mxCell>
        <mxCell id="SxXsiV88UcKwgikaE5HA-15" value="" style="rounded=0;whiteSpace=wrap;html=1;fillColor=none;" vertex="1" parent="1">
          <mxGeometry x="1100" y="380" width="270" height="310" as="geometry" />
        </mxCell>
        <mxCell id="SxXsiV88UcKwgikaE5HA-16" value="" style="rounded=0;whiteSpace=wrap;html=1;fillColor=none;" vertex="1" parent="1">
          <mxGeometry x="598" y="380" width="382" height="310" as="geometry" />
        </mxCell>
        <mxCell id="SxXsiV88UcKwgikaE5HA-17" value="&lt;font style=&quot;font-size: 14px;&quot;&gt;Database&lt;br&gt;(MySQL)&lt;/font&gt;" style="strokeWidth=2;html=1;shape=mxgraph.flowchart.database;whiteSpace=wrap;" vertex="1" parent="1">
          <mxGeometry x="1220" y="509" width="99" height="150" as="geometry" />
        </mxCell>
        <mxCell id="SxXsiV88UcKwgikaE5HA-18" style="edgeStyle=orthogonalEdgeStyle;rounded=0;orthogonalLoop=1;jettySize=auto;html=1;exitX=1;exitY=0.5;exitDx=0;exitDy=0;startArrow=classic;startFill=1;" edge="1" parent="1" source="SxXsiV88UcKwgikaE5HA-19" target="SxXsiV88UcKwgikaE5HA-23">
          <mxGeometry relative="1" as="geometry" />
        </mxCell>
        <mxCell id="SxXsiV88UcKwgikaE5HA-19" value="&lt;font style=&quot;font-size: 14px;&quot;&gt;Application&lt;br&gt;server&lt;/font&gt;" style="rounded=1;whiteSpace=wrap;html=1;absoluteArcSize=1;arcSize=14;strokeWidth=2;" vertex="1" parent="1">
          <mxGeometry x="620" y="565" width="100" height="100" as="geometry" />
        </mxCell>
        <mxCell id="SxXsiV88UcKwgikaE5HA-20" style="edgeStyle=orthogonalEdgeStyle;rounded=0;orthogonalLoop=1;jettySize=auto;html=1;exitX=0.5;exitY=1;exitDx=0;exitDy=0;entryX=0.5;entryY=0;entryDx=0;entryDy=0;startArrow=classic;startFill=1;" edge="1" parent="1" source="SxXsiV88UcKwgikaE5HA-21" target="SxXsiV88UcKwgikaE5HA-19">
          <mxGeometry relative="1" as="geometry" />
        </mxCell>
        <mxCell id="SxXsiV88UcKwgikaE5HA-21" value="&lt;font style=&quot;font-size: 14px;&quot;&gt;Web&amp;nbsp;Server&lt;br&gt;(Nginx)&lt;/font&gt;" style="rounded=1;whiteSpace=wrap;html=1;absoluteArcSize=1;arcSize=14;strokeWidth=2;" vertex="1" parent="1">
          <mxGeometry x="827" y="420" width="100" height="100" as="geometry" />
        </mxCell>
        <mxCell id="SxXsiV88UcKwgikaE5HA-22" style="edgeStyle=orthogonalEdgeStyle;rounded=0;orthogonalLoop=1;jettySize=auto;html=1;exitX=0;exitY=0;exitDx=80;exitDy=65;exitPerimeter=0;entryX=0.5;entryY=0;entryDx=0;entryDy=0;startArrow=classic;startFill=1;" edge="1" parent="1" source="SxXsiV88UcKwgikaE5HA-23" target="SxXsiV88UcKwgikaE5HA-32">
          <mxGeometry relative="1" as="geometry">
            <Array as="points">
              <mxPoint x="1000" y="630" />
              <mxPoint x="1000" y="470" />
            </Array>
          </mxGeometry>
        </mxCell>
        <mxCell id="SxXsiV88UcKwgikaE5HA-23" value="&lt;font style=&quot;font-size: 14px;&quot;&gt;Code base&lt;/font&gt;" style="shape=note;whiteSpace=wrap;html=1;backgroundOutline=1;darkOpacity=0.05;" vertex="1" parent="1">
          <mxGeometry x="827" y="565" width="80" height="100" as="geometry" />
        </mxCell>
        <mxCell id="SxXsiV88UcKwgikaE5HA-24" style="edgeStyle=orthogonalEdgeStyle;rounded=0;orthogonalLoop=1;jettySize=auto;html=1;exitX=1;exitY=0.5;exitDx=0;exitDy=0;startArrow=classic;startFill=1;" edge="1" parent="1" source="SxXsiV88UcKwgikaE5HA-25" target="SxXsiV88UcKwgikaE5HA-21">
          <mxGeometry relative="1" as="geometry" />
        </mxCell>
        <mxCell id="SxXsiV88UcKwgikaE5HA-25" value="&lt;font style=&quot;font-size: 14px;&quot;&gt;Server 1&lt;/font&gt;" style="rounded=1;whiteSpace=wrap;html=1;absoluteArcSize=1;arcSize=14;strokeWidth=2;" vertex="1" parent="1">
          <mxGeometry x="598" y="420" width="100" height="100" as="geometry" />
        </mxCell>
        <mxCell id="SxXsiV88UcKwgikaE5HA-26" value="&lt;h1&gt;&lt;font style=&quot;font-size: 16px;&quot;&gt;&lt;b&gt;REMOTE LINUX SERVER 2&lt;br&gt;&lt;/b&gt;&lt;/font&gt;&lt;/h1&gt;" style="text;html=1;align=center;verticalAlign=middle;resizable=0;points=[];autosize=1;strokeColor=none;fillColor=none;" vertex="1" parent="1">
          <mxGeometry x="678" y="360" width="250" height="70" as="geometry" />
        </mxCell>
        <mxCell id="SxXsiV88UcKwgikaE5HA-27" style="edgeStyle=orthogonalEdgeStyle;rounded=0;orthogonalLoop=1;jettySize=auto;html=1;exitX=0.5;exitY=1;exitDx=0;exitDy=0;" edge="1" parent="1" source="SxXsiV88UcKwgikaE5HA-16" target="SxXsiV88UcKwgikaE5HA-16">
          <mxGeometry relative="1" as="geometry" />
        </mxCell>
        <mxCell id="SxXsiV88UcKwgikaE5HA-28" value="&lt;font style=&quot;font-size: 14px;&quot;&gt;Firewall&lt;/font&gt;" style="rounded=0;whiteSpace=wrap;html=1;direction=north;" vertex="1" parent="1">
          <mxGeometry x="538" y="390" width="60" height="161" as="geometry" />
        </mxCell>
        <mxCell id="SxXsiV88UcKwgikaE5HA-29" value="" style="shape=mxgraph.signs.healthcare.eye;html=1;pointerEvents=1;fillColor=#000000;strokeColor=none;verticalLabelPosition=bottom;verticalAlign=top;align=center;gradientColor=none;container=0;" vertex="1" parent="1">
          <mxGeometry x="1100" y="659" width="55" height="30" as="geometry" />
        </mxCell>
        <mxCell id="SxXsiV88UcKwgikaE5HA-30" value="&lt;h1&gt;&lt;font style=&quot;font-size: 16px;&quot;&gt;&lt;b&gt;DATABASE SERVER 2&lt;br&gt;&lt;/b&gt;&lt;/font&gt;&lt;/h1&gt;" style="text;html=1;align=center;verticalAlign=middle;resizable=0;points=[];autosize=1;strokeColor=none;fillColor=none;" vertex="1" parent="1">
          <mxGeometry x="1155" y="380" width="210" height="70" as="geometry" />
        </mxCell>
        <mxCell id="SxXsiV88UcKwgikaE5HA-31" value="" style="shape=mxgraph.signs.healthcare.eye;html=1;pointerEvents=1;fillColor=#000000;strokeColor=none;verticalLabelPosition=bottom;verticalAlign=top;align=center;gradientColor=none;container=0;" vertex="1" parent="1">
          <mxGeometry x="918" y="659" width="55" height="30" as="geometry" />
        </mxCell>
        <mxCell id="SxXsiV88UcKwgikaE5HA-32" value="&lt;font style=&quot;font-size: 14px;&quot;&gt;Firewall&lt;/font&gt;" style="rounded=0;whiteSpace=wrap;html=1;direction=north;" vertex="1" parent="1">
          <mxGeometry x="1040" y="389.5" width="60" height="161" as="geometry" />
        </mxCell>
        <mxCell id="SxXsiV88UcKwgikaE5HA-33" style="edgeStyle=orthogonalEdgeStyle;rounded=0;orthogonalLoop=1;jettySize=auto;html=1;exitX=0.5;exitY=1;exitDx=0;exitDy=0;entryX=0.5;entryY=0;entryDx=0;entryDy=0;entryPerimeter=0;startArrow=classic;startFill=1;" edge="1" parent="1" source="SxXsiV88UcKwgikaE5HA-32" target="SxXsiV88UcKwgikaE5HA-17">
          <mxGeometry relative="1" as="geometry" />
        </mxCell>
        <mxCell id="SxXsiV88UcKwgikaE5HA-38" value="" style="sketch=0;aspect=fixed;pointerEvents=1;shadow=0;dashed=0;html=1;strokeColor=none;labelPosition=center;verticalLabelPosition=bottom;verticalAlign=top;align=center;fillColor=#00188D;shape=mxgraph.mscae.enterprise.lock" vertex="1" parent="1">
          <mxGeometry x="500" y="90" width="23.4" height="30" as="geometry" />
        </mxCell>
        <mxCell id="SxXsiV88UcKwgikaE5HA-39" value="" style="sketch=0;aspect=fixed;pointerEvents=1;shadow=0;dashed=0;html=1;strokeColor=none;labelPosition=center;verticalLabelPosition=bottom;verticalAlign=top;align=center;fillColor=#00188D;shape=mxgraph.mscae.enterprise.lock" vertex="1" parent="1">
          <mxGeometry x="500" y="319" width="23.4" height="30" as="geometry" />
        </mxCell>
        <mxCell id="SxXsiV88UcKwgikaE5HA-40" value="" style="sketch=0;aspect=fixed;pointerEvents=1;shadow=0;dashed=0;html=1;strokeColor=none;labelPosition=center;verticalLabelPosition=bottom;verticalAlign=top;align=center;fillColor=#00188D;shape=mxgraph.mscae.enterprise.lock" vertex="1" parent="1">
          <mxGeometry x="990" y="160" width="23.4" height="30" as="geometry" />
        </mxCell>
        <mxCell id="SxXsiV88UcKwgikaE5HA-42" value="" style="sketch=0;aspect=fixed;pointerEvents=1;shadow=0;dashed=0;html=1;strokeColor=none;labelPosition=center;verticalLabelPosition=bottom;verticalAlign=top;align=center;fillColor=#00188D;shape=mxgraph.mscae.enterprise.lock" vertex="1" parent="1">
          <mxGeometry x="990" y="535" width="23.4" height="30" as="geometry" />
        </mxCell>
        <mxCell id="SxXsiV88UcKwgikaE5HA-49" style="edgeStyle=orthogonalEdgeStyle;rounded=0;orthogonalLoop=1;jettySize=auto;html=1;exitX=1;exitY=0.25;exitDx=0;exitDy=0;entryX=0.25;entryY=0;entryDx=0;entryDy=0;" edge="1" parent="1" source="SxXsiV88UcKwgikaE5HA-44" target="WCC0QbR53YFn9wZXsvke-7">
          <mxGeometry relative="1" as="geometry">
            <Array as="points">
              <mxPoint x="520" y="440" />
              <mxPoint x="520" y="141" />
            </Array>
          </mxGeometry>
        </mxCell>
        <mxCell id="SxXsiV88UcKwgikaE5HA-44" value="&lt;div style=&quot;font-size: 14px;&quot;&gt;&lt;font style=&quot;font-size: 14px;&quot;&gt;8.8.8.8&lt;br&gt;&lt;/font&gt;&lt;/div&gt;&lt;div style=&quot;font-size: 14px;&quot;&gt;&lt;font style=&quot;font-size: 14px;&quot;&gt;Load balancer&lt;/font&gt;&lt;/div&gt;&lt;font style=&quot;font-size: 14px;&quot;&gt;(HAproxy)&lt;/font&gt;" style="shape=process;whiteSpace=wrap;html=1;backgroundOutline=1;" vertex="1" parent="1">
          <mxGeometry x="370" y="415.5" width="110" height="99.5" as="geometry" />
        </mxCell>
        <mxCell id="SxXsiV88UcKwgikaE5HA-45" value="" style="shape=mxgraph.signs.healthcare.eye;html=1;pointerEvents=1;fillColor=#000000;strokeColor=none;verticalLabelPosition=bottom;verticalAlign=top;align=center;gradientColor=none;container=0;" vertex="1" parent="1">
          <mxGeometry x="405" y="396.5" width="40" height="19" as="geometry" />
        </mxCell>
        <mxCell id="SxXsiV88UcKwgikaE5HA-46" value="&lt;font style=&quot;font-size: 14px;&quot;&gt;Firewall&lt;/font&gt;" style="rounded=0;whiteSpace=wrap;html=1;direction=north;" vertex="1" parent="1">
          <mxGeometry x="320" y="411" width="50" height="109" as="geometry" />
        </mxCell>
        <mxCell id="SxXsiV88UcKwgikaE5HA-48" style="edgeStyle=orthogonalEdgeStyle;rounded=0;orthogonalLoop=1;jettySize=auto;html=1;exitX=1;exitY=0.75;exitDx=0;exitDy=0;entryX=0.372;entryY=-0.005;entryDx=0;entryDy=0;entryPerimeter=0;startArrow=classic;startFill=1;" edge="1" parent="1" source="SxXsiV88UcKwgikaE5HA-44" target="SxXsiV88UcKwgikaE5HA-28">
          <mxGeometry relative="1" as="geometry" />
        </mxCell>
        <mxCell id="SxXsiV88UcKwgikaE5HA-50" value="" style="sketch=0;aspect=fixed;pointerEvents=1;shadow=0;dashed=0;html=1;strokeColor=none;labelPosition=center;verticalLabelPosition=bottom;verticalAlign=top;align=center;fillColor=#00188D;shape=mxgraph.mscae.enterprise.lock" vertex="1" parent="1">
          <mxGeometry x="500" y="475" width="23.4" height="30" as="geometry" />
        </mxCell>
        <mxCell id="SxXsiV88UcKwgikaE5HA-51" style="edgeStyle=orthogonalEdgeStyle;rounded=0;orthogonalLoop=1;jettySize=auto;html=1;exitX=0.75;exitY=1;exitDx=0;exitDy=0;entryX=0.699;entryY=0.009;entryDx=0;entryDy=0;entryPerimeter=0;startArrow=classic;startFill=1;" edge="1" parent="1" source="SxXsiV88UcKwgikaE5HA-2" target="SxXsiV88UcKwgikaE5HA-30">
          <mxGeometry relative="1" as="geometry" />
        </mxCell>
        <mxCell id="SxXsiV88UcKwgikaE5HA-52" value="" style="sketch=0;aspect=fixed;pointerEvents=1;shadow=0;dashed=0;html=1;strokeColor=none;labelPosition=center;verticalLabelPosition=bottom;verticalAlign=top;align=center;fillColor=#00188D;shape=mxgraph.mscae.enterprise.lock" vertex="1" parent="1">
          <mxGeometry x="280" y="215" width="23.4" height="30" as="geometry" />
        </mxCell>
      </root>
    </mxGraphModel>
  </diagram>
</mxfile>
